<svg xmlns="http://www.w3.org/2000/svg" viewBox="0 0 512 512">
  <defs>
    <linearGradient id="bg" x1="0" y1="0" x2="1" y2="1">
      <stop offset="0" stop-color="#1a2150"/>
      <stop offset="1" stop-color="#0f1533"/>
    </linearGradient>
  </defs>
  <rect width="512" height="512" rx="96" fill="url(#bg)"/>
  <rect x="148" y="96" width="24" height="330" rx="12" fill="#e8ecff"/>
  <path d="M172 110 C 240 80, 300 140, 372 110 L 372 250 C 300 280, 240 220, 172 250 Z" fill="#ff6b6b"/>
  <path d="M172 130 C 240 100, 300 160, 372 130 L 372 178 C 300 208, 240 148, 172 178 Z" fill="#ffd93d"/>
  <path d="M172 202 C 240 172, 300 232, 372 202 L 372 250 C 300 280, 240 220, 172 250 Z" fill="#3fd8c7"/>
  <circle cx="160" cy="88" r="22" fill="#ffd93d"/>
</svg>
